<?xml version="1.0" standalone="no"?>
<!DOCTYPE svg PUBLIC "-//W3C//DTD SVG 20010904//EN"
 "http://www.w3.org/TR/2001/REC-SVG-20010904/DTD/svg10.dtd">
<svg version="1.0" xmlns="http://www.w3.org/2000/svg"
 width="1294.000000pt" height="1174.000000pt" viewBox="0 0 1294.000000 1174.000000"
 preserveAspectRatio="xMidYMid meet">

<g transform="translate(0.000000,1174.000000) scale(0.100000,-0.100000)"
fill="#000000" stroke="none">
<path d="M6190 11164 c-25 -2 -106 -8 -180 -14 -956 -77 -1918 -440 -2695
-1019 -224 -167 -373 -297 -591 -515 -218 -218 -348 -367 -515 -591 -517 -694
-862 -1532 -983 -2385 -43 -303 -51 -420 -51 -765 0 -345 8 -462 51 -765 121
-857 468 -1694 991 -2395 289 -388 676 -777 1059 -1067 708 -535 1556 -889
2424 -1012 303 -43 420 -51 765 -51 196 0 383 6 460 13 1128 113 2083 509
2949 1225 156 129 514 487 643 643 716 866 1112 1821 1225 2949 17 172 17 748
0 920 -113 1128 -509 2083 -1225 2949 -130 157 -488 515 -647 646 -845 700
-1798 1101 -2885 1215 -140 15 -689 28 -795 19z m760 -339 c1165 -119 2208
-613 3030 -1435 746 -746 1228 -1687 1394 -2720 48 -297 60 -452 60 -795 0
-343 -12 -498 -60 -795 -254 -1586 -1275 -2964 -2719 -3670 -544 -266 -1080
-419 -1710 -486 -223 -24 -737 -24 -960 0 -1186 127 -2212 612 -3035 1436
-746 746 -1228 1687 -1394 2720 -48 297 -60 452 -60 795 0 343 12 498 60 795
205 1278 901 2420 1949 3200 781 582 1725 921 2710 974 144 8 586 -4 735 -19z"/>
<path d="M5715 9029 c-138 -34 -324 -100 -372 -132 -28 -19 -65 -59 -90 -97
-66 -97 -72 -102 -184 -139 -160 -51 -208 -81 -340 -211 -156 -154 -194 -235
-215 -453 -4 -37 -10 -70 -14 -72 -4 -2 -26 22 -50 55 -45 63 -66 75 -115 71
-110 -9 -157 -48 -204 -169 -50 -130 -64 -210 -64 -362 1 -166 20 -249 94
-398 28 -57 50 -104 48 -106 -2 -1 -33 -13 -69 -26 -104 -37 -199 -90 -250
-140 -83 -81 -179 -297 -201 -453 -24 -163 27 -311 180 -527 75 -105 82 -118
76 -150 -25 -143 -26 -161 -16 -235 6 -43 25 -118 41 -167 34 -100 36 -126 15
-183 -18 -52 -19 -127 -1 -170 23 -54 50 -47 126 31 134 137 223 138 302 4 57
-96 62 -137 54 -445 -7 -299 3 -484 33 -623 47 -215 141 -436 268 -625 81
-122 248 -294 315 -325 98 -45 378 -73 479 -47 l27 7 -5 -65 c-9 -101 37 -177
106 -177 25 0 180 73 250 117 71 45 124 95 163 156 16 26 34 47 39 47 4 0 24
-25 45 -55 20 -31 52 -68 71 -82 44 -34 118 -53 169 -44 21 4 57 4 79 0 51 -9
124 10 168 44 19 14 51 51 71 82 21 30 41 55 45 55 5 0 23 -21 39 -47 39 -61
92 -111 163 -156 70 -44 225 -117 250 -117 37 0 69 24 90 67 18 37 21 56 16
110 l-5 65 27 -7 c101 -26 381 2 479 47 67 31 235 203 315 325 126 188 221
412 268 624 31 143 40 317 33 619 -8 314 -3 353 54 450 79 134 168 133 302 -4
76 -78 103 -85 126 -31 18 43 17 118 -1 170 -21 57 -19 83 15 183 16 49 35
124 41 167 10 74 9 92 -16 235 -6 32 1 45 76 150 153 216 204 364 180 527 -22
156 -118 372 -201 453 -51 50 -146 103 -250 140 -36 13 -67 25 -69 26 -2 2 20
49 48 106 74 149 93 232 94 398 0 152 -14 232 -64 362 -47 121 -94 160 -204
169 -49 4 -70 -8 -115 -71 -24 -33 -46 -57 -50 -55 -4 2 -10 35 -14 72 -21
218 -59 299 -215 453 -132 130 -180 160 -340 211 -112 37 -118 42 -184 139
-56 85 -109 119 -259 169 -304 101 -412 105 -534 20 -47 -33 -52 -34 -139 -33
-49 1 -175 2 -280 2 -104 0 -230 -1 -280 -2 -87 -1 -92 0 -139 33 -92 64 -186
75 -331 40z m-9 -348 c-11 -81 -46 -204 -71 -246 -30 -51 -48 -68 -229 -210
l-148 -116 7 48 c13 89 55 237 81 289 27 54 88 123 149 170 38 28 193 113 209
114 5 0 6 -22 2 -49z m1612 4 c133 -69 225 -152 271 -248 23 -47 64 -199 76
-280 l7 -48 -148 116 c-181 142 -199 159 -229 210 -36 61 -92 295 -70 295 4 0
46 -20 93 -45z m-1040 -67 c-80 -145 -342 -307 -498 -308 l-34 0 59 61 c120
122 283 228 415 270 82 26 84 25 58 -23z m420 26 c133 -38 304 -148 427 -273
l59 -61 -34 0 c-118 1 -311 98 -425 215 -47 48 -105 135 -90 135 4 0 32 -7 63
-16z m-202 -201 c43 -49 67 -104 67 -158 0 -53 -16 -92 -66 -163 l-31 -43 -22
28 c-97 119 -102 224 -15 330 14 17 30 32 34 32 4 1 19 -11 33 -26z m-1434
-149 c27 -189 -133 -524 -308 -644 -23 -17 -44 -30 -46 -30 -5 0 29 285 46
386 20 116 58 194 123 254 48 44 143 93 168 86 5 -1 13 -25 17 -52z m2905 26
c108 -47 183 -160 209 -314 17 -101 51 -386 46 -386 -2 0 -23 13 -47 30 -104
72 -216 236 -273 402 -29 85 -35 116 -35 188 0 48 3 92 7 99 8 13 27 9 93 -19z
m-2017 -229 c-25 -36 -127 -126 -193 -170 -110 -75 -251 -122 -401 -135 l-78
-7 21 29 c43 61 180 179 249 215 60 32 97 42 234 66 208 37 193 36 168 2z
m1213 -6 c124 -20 160 -31 219 -62 69 -36 206 -154 249 -215 l21 -29 -78 7
c-150 13 -291 60 -401 135 -67 45 -168 134 -194 171 l-22 30 29 -6 c16 -3 96
-17 177 -31z m-753 -233 c0 -88 -81 -203 -169 -240 -27 -12 -125 -39 -217 -61
-265 -62 -327 -92 -429 -210 l-52 -59 -7 54 c-14 121 28 249 103 317 99 89
313 163 604 207 170 25 167 26 167 -8z m242 12 c303 -41 537 -119 639 -211 75
-68 117 -196 103 -317 l-7 -55 -54 64 c-95 112 -164 145 -427 206 -92 22 -190
49 -217 61 -88 37 -169 152 -169 240 0 33 -10 32 132 12z m-2297 -36 c27 -65
32 -263 10 -365 -19 -89 -72 -210 -86 -196 -21 21 -49 169 -49 257 0 116 17
251 35 287 14 26 51 59 66 59 4 0 15 -19 24 -42z m4273 26 c34 -24 50 -64 62
-155 16 -132 13 -256 -10 -345 -11 -43 -24 -82 -29 -87 -14 -14 -67 107 -86
196 -22 102 -17 300 10 365 19 47 22 48 53 26z m-2069 -396 c14 -5 76 -23 136
-38 211 -53 353 -123 430 -212 19 -23 55 -83 80 -134 29 -59 63 -110 92 -139
43 -43 127 -95 155 -95 7 0 36 -11 65 -24 60 -28 80 -60 113 -177 11 -41 20
-75 20 -78 0 -2 -17 -1 -37 2 -20 4 -69 2 -107 -4 -39 -5 -135 -16 -213 -24
-166 -17 -238 -34 -347 -81 -80 -35 -258 -84 -307 -84 -15 0 -37 -9 -50 -19
-26 -21 -26 -22 37 -129 l26 -43 -16 -93 c-20 -119 -20 -238 0 -307 9 -30 62
-130 118 -224 56 -93 107 -183 114 -198 16 -38 15 -102 -2 -136 -22 -42 -97
-106 -149 -126 -46 -17 -47 -17 -131 9 -46 14 -101 26 -121 26 -20 0 -75 -12
-121 -26 -84 -26 -85 -26 -131 -9 -52 20 -127 84 -149 126 -17 34 -18 98 -2
136 7 15 58 105 114 198 56 94 109 194 118 224 20 69 20 188 0 307 l-16 93 26
43 c63 107 63 108 37 129 -13 10 -35 19 -50 19 -49 0 -227 49 -307 84 -109 47
-181 64 -347 81 -78 8 -174 19 -213 24 -38 6 -87 8 -107 4 -20 -3 -37 -4 -37
-2 0 3 9 37 20 78 33 117 53 149 113 177 29 13 58 24 65 24 28 0 112 52 155
95 29 29 63 80 92 139 25 51 61 111 80 134 77 89 220 160 431 212 126 31 172
50 204 85 l23 24 35 -30 c19 -17 46 -35 61 -41z m-1239 -28 c-11 -37 -90 -142
-133 -174 -76 -58 -181 -86 -419 -111 -81 -8 -154 -15 -161 -15 -20 0 -32 79
-15 96 7 8 83 49 168 92 166 84 222 101 421 126 156 20 149 21 139 -14z m2415
15 c213 -26 266 -42 435 -127 85 -43 161 -84 168 -92 17 -17 5 -96 -15 -96 -7
0 -80 7 -161 15 -314 33 -398 66 -497 195 -43 56 -73 120 -56 120 4 0 61 -7
126 -15z m-3301 -685 c98 -50 188 -184 188 -280 0 -72 -35 -137 -95 -174 -50
-31 -139 -47 -151 -27 -4 5 1 36 10 67 29 101 -2 201 -78 251 -37 25 -51 28
-123 28 -74 0 -85 -3 -119 -29 -50 -38 -76 -95 -76 -171 0 -158 51 -220 360
-439 80 -57 186 -130 237 -164 98 -66 133 -104 133 -147 l0 -26 -64 36 c-89
50 -161 72 -288 90 -61 8 -131 24 -155 35 -58 25 -154 118 -203 196 -66 105
-150 328 -150 399 0 36 53 222 76 266 19 38 38 47 184 86 153 41 237 41 314 3z
m4372 -3 c149 -39 169 -48 188 -86 23 -44 76 -230 76 -266 0 -71 -84 -294
-150 -399 -49 -78 -145 -171 -203 -196 -24 -11 -94 -27 -155 -35 -127 -18
-199 -40 -288 -90 l-64 -36 0 26 c0 43 35 81 133 147 51 34 157 107 237 164
309 219 360 281 360 439 0 76 -26 133 -76 171 -34 26 -45 29 -119 29 -72 0
-86 -3 -123 -28 -76 -50 -107 -150 -78 -251 9 -31 14 -62 10 -67 -12 -20 -101
-4 -151 27 -93 58 -121 171 -69 278 61 125 174 206 287 206 32 0 114 -15 185
-33z m-3672 -666 c36 -84 77 -171 92 -193 90 -130 257 -210 405 -194 124 13
286 101 469 256 l85 73 3 -38 c9 -101 -57 -271 -159 -412 -32 -45 -71 -105
-87 -135 -24 -48 -27 -62 -25 -148 1 -52 3 -108 5 -124 3 -29 0 -30 -94 -66
-142 -54 -253 -127 -386 -255 -106 -102 -117 -117 -163 -211 -27 -56 -49 -107
-49 -113 0 -6 -4 -11 -9 -11 -19 0 -61 123 -83 239 l-23 123 27 22 c15 11 45
33 67 48 50 34 91 109 72 132 -7 8 -44 24 -82 36 -100 30 -141 74 -198 210
-152 363 -164 523 -57 755 28 61 112 173 122 162 2 -1 32 -72 68 -156z m2846
4 c114 -235 103 -397 -51 -765 -57 -136 -98 -180 -198 -210 -38 -12 -75 -28
-82 -36 -19 -23 22 -98 72 -132 22 -15 52 -37 67 -48 l27 -22 -23 -123 c-22
-116 -64 -239 -83 -239 -5 0 -9 5 -9 11 0 6 -22 57 -49 113 -46 94 -57 109
-163 211 -133 128 -244 201 -386 255 -94 36 -97 37 -94 66 2 16 4 72 5 124 2
86 -1 100 -25 148 -16 30 -55 90 -87 135 -102 141 -168 311 -159 412 l3 38 85
-73 c293 -248 493 -310 695 -214 122 57 182 134 271 344 l67 161 39 -38 c22
-21 57 -74 78 -118z m-3492 -589 c135 -50 244 -128 290 -205 40 -68 38 -154
-7 -237 -17 -33 -51 -83 -75 -110 -53 -60 -53 -60 -61 125 -4 101 -10 145 -25
178 -29 66 -111 146 -183 179 -54 25 -74 29 -152 29 -65 0 -99 -5 -122 -17
-33 -16 -33 -16 -33 8 0 27 16 64 34 77 6 4 67 6 136 4 105 -3 137 -8 198 -31z
m4288 26 c17 -11 34 -48 34 -76 0 -24 0 -24 -32 -8 -24 12 -58 17 -123 17 -77
0 -98 -4 -147 -27 -74 -34 -151 -107 -183 -172 -21 -44 -25 -70 -30 -186 -8
-186 -8 -186 -61 -126 -142 162 -146 318 -11 429 81 66 211 129 312 150 35 8
230 7 241 -1z m-3835 -438 c35 -73 36 -130 4 -230 -23 -75 -46 -116 -168 -297
-78 -116 -147 -212 -154 -214 -16 -6 -27 93 -20 183 7 94 35 155 125 276 96
129 116 163 147 251 15 43 31 77 35 77 5 0 18 -21 31 -46z m3114 -31 c31 -88
51 -122 147 -251 90 -121 118 -182 125 -276 7 -90 -4 -189 -20 -183 -7 2 -76
98 -154 214 -122 181 -145 222 -168 297 -20 62 -26 100 -23 135 5 48 43 141
58 141 4 0 20 -34 35 -77z m-1982 -104 c12 -7 37 -27 55 -45 l33 -34 -83 -38
c-97 -45 -167 -105 -239 -204 -79 -109 -104 -169 -104 -253 1 -59 6 -79 32
-130 18 -33 41 -73 52 -90 12 -16 21 -34 21 -38 0 -4 -38 -5 -85 -1 -74 6 -88
4 -105 -11 -43 -39 -21 -110 58 -182 l56 -52 7 -78 c28 -300 -6 -429 -150
-574 -42 -42 -91 -84 -110 -94 -44 -22 -137 -23 -182 0 -61 31 -62 35 -21 65
21 15 53 46 70 68 48 60 120 220 139 305 15 71 15 80 -5 193 -12 66 -37 173
-56 239 -61 215 -70 304 -41 438 22 103 54 164 134 249 182 194 426 318 524
267z m977 -23 c95 -39 197 -112 303 -217 107 -107 137 -158 162 -276 29 -134
20 -223 -41 -438 -19 -66 -44 -173 -56 -239 -20 -113 -20 -122 -5 -193 19 -85
91 -245 139 -305 17 -22 49 -53 70 -68 41 -30 40 -34 -21 -65 -45 -23 -138
-22 -182 0 -19 10 -68 52 -110 94 -144 145 -178 274 -150 574 l7 78 56 52 c79
72 101 143 58 182 -17 15 -31 17 -105 11 -47 -4 -85 -3 -85 1 0 4 9 22 21 38
11 17 34 57 52 90 26 51 31 71 32 130 0 84 -25 144 -104 253 -72 99 -142 159
-239 204 l-83 38 33 34 c18 18 42 38 53 45 29 17 123 6 195 -23z m-1988 -360
c10 -47 9 -57 -14 -107 -14 -29 -56 -88 -94 -129 -98 -105 -144 -163 -203
-255 -29 -44 -55 -82 -58 -85 -3 -3 -3 49 -1 115 5 141 9 152 124 306 67 90
111 155 182 269 l16 25 19 -43 c10 -24 23 -67 29 -96z m2906 57 c22 -38 81
-124 132 -193 127 -172 132 -184 138 -305 6 -140 3 -150 -30 -94 -44 76 -142
202 -224 291 -91 98 -129 171 -120 228 8 51 47 151 56 145 4 -3 26 -35 48 -72z
m-1582 51 c18 -9 36 -24 39 -35 6 -19 11 -21 40 -21 29 0 34 2 40 21 7 23 63
51 102 51 16 0 50 -10 74 -22 56 -29 269 -188 269 -201 0 -6 -27 -7 -72 -3
-331 29 -452 29 -820 -1 -52 -4 -78 -2 -78 5 0 13 211 170 269 199 52 27 91
29 137 7z m-1201 -244 c18 -35 20 -174 4 -252 -16 -76 -48 -133 -119 -213
-123 -138 -217 -309 -236 -430 l-8 -50 -7 50 c-11 76 -10 286 1 346 15 83 72
185 160 289 97 114 145 184 168 245 9 25 17 45 19 45 1 0 9 -13 18 -30z m2692
-172 c21 -26 67 -82 102 -125 72 -87 116 -172 131 -252 11 -59 12 -255 1 -341
l-7 -55 -8 50 c-19 122 -100 271 -224 415 -83 96 -114 151 -131 228 -17 79
-14 217 5 253 l15 30 39 -78 c21 -43 56 -99 77 -125z m-1119 111 c62 -5 132
-14 155 -18 l42 -7 -100 -74 c-118 -88 -120 -88 -390 -88 -270 0 -272 0 -390
88 l-100 74 55 9 c183 27 531 35 728 16z m-1443 -542 c31 -145 32 -227 4 -310
-35 -104 -80 -154 -185 -204 -42 -20 -64 -38 -75 -61 l-17 -32 -21 49 c-32 75
-44 146 -39 235 6 104 18 130 164 351 l118 179 13 -44 c7 -25 24 -98 38 -163z
m2484 4 c72 -109 127 -204 136 -234 28 -94 17 -227 -27 -329 l-20 -48 -17 32
c-11 23 -33 41 -75 61 -33 16 -71 37 -84 48 -71 55 -122 175 -122 283 0 93 64
396 81 379 4 -4 62 -91 128 -192z m-1674 131 c34 -12 54 -26 65 -45 14 -25 13
-30 -9 -70 -53 -93 -61 -116 -77 -222 -16 -108 -15 -349 2 -476 6 -44 5 -47
-45 -101 -29 -31 -80 -75 -114 -96 -80 -51 -247 -135 -254 -128 -7 7 35 77 86
145 61 81 76 118 127 316 52 204 62 304 45 440 -23 176 -25 204 -10 221 31 37
104 43 184 16z m856 -8 c23 -21 23 -40 -2 -229 -17 -136 -7 -236 45 -440 51
-198 66 -235 127 -316 51 -68 93 -138 86 -145 -7 -7 -174 77 -254 128 -34 21
-85 65 -114 96 -50 54 -51 57 -45 101 4 26 9 123 12 216 7 223 -14 361 -70
452 -40 65 -43 79 -21 111 35 49 191 67 236 26z m-357 -125 c97 -89 101 -103
101 -379 0 -255 -2 -266 -58 -319 -54 -50 -350 -50 -404 0 -56 53 -58 65 -58
314 0 278 4 294 98 382 l62 58 100 -1 100 -1 59 -54z"/>
</g>
</svg>
